<svg width="40" height="40" fill="none" xmlns="http://www.w3.org/2000/svg"><g clip-path="url(#clip0_5_133)"><path fill-rule="evenodd" clip-rule="evenodd" d="M34.373 37.457l-2.706-1.449-2.709 1.449.54-3.022-2.213-2.128 3.042-.42 1.34-2.764 1.34 2.764 3.041.42-2.215 2.128.54 3.022zm-11.666 0L20 36.008l-2.708 1.449.541-3.022-2.215-2.128 3.042-.42L20 29.123l1.34 2.764 3.042.42-2.215 2.128.54 3.022zm-11.667 0l-2.707-1.449-2.708 1.449.542-3.022-2.215-2.128 3.041-.42 1.34-2.764 1.34 2.764 3.042.42-2.215 2.128.54 3.022zm27.293-10.834H1.667c-.92 0-1.667.745-1.667 1.667v10c0 .922.747 1.667 1.667 1.667h36.666c.922 0 1.667-.745 1.667-1.667v-10c0-.922-.745-1.667-1.667-1.667zM.003 24.957h8.33c.014-2.024-.001-3.815 0-5.022.009-6.655 2.915-5.193 2.915-11.105 0-2.512-1.638-3.873-3.746-3.873-3.115 0-5.282 2.978-2.332 8.548.968 1.832-1.033 2.265-3.183 2.762C.123 16.697 0 18.012 0 19.588l.003 5.369zm38.01-8.69c-2.15-.497-4.151-.93-3.183-2.762 2.95-5.57.783-8.548-2.332-8.548-2.108 0-3.746 1.361-3.746 3.873 0 5.54 2.865 4.507 2.915 11.127.013 1.62-.015 2.185 0 5h8.33L40 19.588c0-1.576-.123-2.891-1.987-3.321zm-8.018 8.69H10.003L10 19.747c0-2.097.167-4.137 2.647-4.71 2.806-.649 5.573-1.227 4.241-3.682-3.943-7.273-1.123-11.398 3.11-11.398 4.152 0 7.044 3.971 3.11 11.398-1.291 2.44 1.377 3.02 4.242 3.682 2.483.573 2.648 2.615 2.648 4.715l-.003 5.205z" fill="#fff"/></g><defs><clipPath id="clip0_5_133"><path fill="#fff" d="M0 0h40v40H0z"/></clipPath></defs></svg>