<svg width="40" height="40" fill="none" xmlns="http://www.w3.org/2000/svg"><path d="M28.333 11.667H11.667v1.666h16.666v-1.666zm0 3.333H11.667v1.667h16.666V15zm-6.666 3.333h-10V20h10v-1.667zm15.07 7.73c.1.425-.462.69-.652.24-.227-.55-.593-2.89-.912-5.243-.171-1.26-1.845-1.105-1.84.197.005 2.025.004 3.713 0 6.711-.003 2.559 1.162 2.609 2.022 5.479.147.493.273 1.03.377 1.555L40 33.51c-1.488-2.912-.77-5.21-.622-7.092.204-2.571-.48-2.821-3.653-5.913.19 1.36.587 3.775 1.012 5.558zM4.275 20.507C1.102 23.597.418 23.848.622 26.42c.148 1.88.866 4.178-.622 7.09L4.27 35c.103-.523.23-1.062.377-1.555.858-2.868 2.023-2.92 2.02-5.478-.004-3-.005-4.687 0-6.712.005-1.302-1.67-1.457-1.84-.197-.317 2.354-.685 4.694-.912 5.244-.188.451-.75.185-.652-.24.425-1.782.822-4.197 1.012-5.555zm4.058 7.826L8.34 25h23.32l.007 3.333H8.333zM5 18.635V7.5A2.5 2.5 0 017.5 5h25A2.5 2.5 0 0135 7.5v11.135a2.586 2.586 0 00-.727-.108 2.603 2.603 0 00-1.836.761c-.482.484-.749 1.144-.772 1.864V8.333H8.333v12.815c-.023-.72-.29-1.378-.771-1.861a2.607 2.607 0 00-1.837-.762c-.253 0-.493.043-.725.11z" fill="#fff"/></svg>