<svg width="40" height="40" fill="none" xmlns="http://www.w3.org/2000/svg"><g clip-path="url(#clip0_5_101)"><path d="M28.333 1.667a1.666 1.666 0 10-3.333 0V5a1.666 1.666 0 103.333 0V1.667zM8.333 5A1.666 1.666 0 115 5V1.667a1.666 1.666 0 113.333 0V5zM30 13.333V30H3.333V13.333H30zm3.333-10H30V5a3.337 3.337 0 01-3.333 3.333A3.337 3.337 0 0123.333 5V3.333H10V5a3.337 3.337 0 01-3.333 3.333A3.337 3.337 0 013.333 5V3.333H0v30h33.333v-30zm-19.41 23.334c-2.196 0-3.653-1.269-3.613-3.675h2.075c.037 1.066.467 1.845 1.512 1.845.691 0 1.386-.412 1.386-1.332 0-1.167-.808-1.252-2.166-1.252v-1.628c.955.083 1.993-.053 1.993-1.013 0-.759-.615-1.105-1.185-1.105-.958 0-1.322.703-1.303 1.671h-2.094c.087-2.335 1.504-3.511 3.382-3.511 1.613 0 3.282 1.021 3.282 2.733 0 .887-.39 1.575-1.064 1.912.88.338 1.412 1.135 1.412 2.155-.002 2.001-1.655 3.2-3.617 3.2zm9.1 0h-2.176V20.42h-2.355v-1.712c1.495.04 2.541-.388 2.761-1.855h1.77v9.814zM40 8.333V40H3.333v-3.333h33.334V8.333H40z" fill="#fff"/></g><defs><clipPath id="clip0_5_101"><path fill="#fff" d="M0 0h40v40H0z"/></clipPath></defs></svg>