<svg width="30" height="30" fill="none" xmlns="http://www.w3.org/2000/svg"><g clip-path="url(#clip0_11_74)"><path d="M18.536 7.878c-.922-.043-1.2-.05-3.536-.05-2.336 0-2.613.008-3.535.05-2.374.108-3.479 1.232-3.587 3.587-.042.922-.052 1.199-.052 3.535 0 2.336.01 2.613.052 3.536.108 2.349 1.208 3.479 3.587 3.588.921.041 1.199.051 3.535.051 2.337 0 2.614-.009 3.536-.051 2.374-.108 3.478-1.235 3.588-3.588.041-.922.05-1.2.05-3.536 0-2.336-.009-2.613-.05-3.535-.11-2.354-1.216-3.479-3.588-3.587zM15 19.494a4.494 4.494 0 110-8.988 4.494 4.494 0 010 8.988zm4.671-8.114a1.05 1.05 0 110-2.1 1.05 1.05 0 010 2.1zM17.916 15a2.916 2.916 0 11-5.832 0 2.916 2.916 0 015.832 0zM15 0C6.716 0 0 6.716 0 15c0 8.284 6.716 15 15 15 8.284 0 15-6.716 15-15 0-8.284-6.716-15-15-15zm8.698 18.608c-.144 3.18-1.916 4.943-5.09 5.09-.933.042-1.232.052-3.608.052-2.376 0-2.674-.01-3.607-.052-3.18-.147-4.944-1.912-5.09-5.09-.043-.933-.053-1.232-.053-3.608 0-2.376.01-2.674.053-3.607.146-3.18 1.91-4.944 5.09-5.09.933-.043 1.23-.053 3.607-.053 2.376 0 2.675.01 3.609.054 3.181.146 4.946 1.915 5.088 5.088.043.934.053 1.232.053 3.608 0 2.376-.01 2.675-.052 3.608z" fill="#fff"/></g><defs><clipPath id="clip0_11_74"><path fill="#fff" d="M0 0h30v30H0z"/></clipPath></defs></svg>