<svg width="30" height="30" fill="none" xmlns="http://www.w3.org/2000/svg"><g clip-path="url(#clip0_11_72)"><path d="M15 0C6.716 0 0 6.716 0 15c0 8.284 6.716 15 15 15 8.284 0 15-6.716 15-15 0-8.284-6.716-15-15-15zm7.582 12.056c.23 5.05-3.537 10.68-10.205 10.68-2.027 0-3.913-.595-5.502-1.614a7.223 7.223 0 005.315-1.486 3.598 3.598 0 01-3.355-2.494 3.6 3.6 0 001.622-.06c-1.726-.348-2.918-1.903-2.88-3.567a3.58 3.58 0 001.627.449A3.596 3.596 0 018.092 9.17a10.19 10.19 0 007.4 3.751 3.594 3.594 0 016.12-3.275 7.162 7.162 0 002.28-.871 3.606 3.606 0 01-1.58 1.986 7.168 7.168 0 002.062-.566 7.208 7.208 0 01-1.791 1.861z" fill="#fff"/></g><defs><clipPath id="clip0_11_72"><path fill="#fff" d="M0 0h30v30H0z"/></clipPath></defs></svg>